<svg width="58" height="70" viewBox="0 0 58 70" fill="none" xmlns="http://www.w3.org/2000/svg">
<path d="M24.6211 69.9413C16.9098 69.9413 10.8509 67.621 6.44446 62.9803C2.14815 58.2292 0 51.6549 0 43.2575C0 34.9707 1.76259 27.5677 5.28776 21.0487C8.81293 14.5297 13.66 9.3918 19.8291 5.63508C25.9982 1.87836 32.9934 0 40.8149 0C46.1027 0 50.2888 0.883938 53.3733 2.65181C56.4578 4.41968 58.0001 6.85049 58.0001 9.94426C58.0001 12.7066 56.6782 15.4136 54.0343 18.0654C53.0428 19.0598 51.7209 19.999 50.0685 20.8829C48.5262 21.6564 47.3144 22.0431 46.4331 22.0431C45.4417 22.0431 44.6155 21.6564 43.9545 20.8829C42.8529 19.6675 41.4208 18.5074 39.6582 17.4025C37.8956 16.2975 35.417 15.7451 32.2223 15.7451C26.8244 15.7451 22.4179 17.6234 19.0029 21.3802C15.5879 25.0264 13.8804 29.8328 13.8804 35.7993C13.8804 41.2134 15.4226 45.5779 18.5072 48.8926C21.5917 52.2074 25.6677 53.8648 30.7351 53.8648C33.379 53.8648 36.2432 53.4228 39.3277 52.5389C42.5224 51.5444 45.3315 50.1633 47.7551 48.3954C48.9669 47.2905 50.2337 46.738 51.5557 46.738C53.7589 46.738 54.8605 48.1192 54.8605 50.8815C54.8605 54.5277 53.0428 58.0082 49.4075 61.323C46.6535 63.8643 42.963 65.9636 38.3363 67.621C33.8196 69.1679 29.2479 69.9413 24.6211 69.9413Z" fill="#24786D"/>
</svg>
