<svg width="156" height="84" viewBox="0 0 156 84" fill="none" xmlns="http://www.w3.org/2000/svg">
<path d="M0 18C0 12.4087 0 9.61305 0.913446 7.4078C2.13137 4.46746 4.46746 2.13137 7.4078 0.913446C9.61305 0 12.4087 0 18 0H138C143.591 0 146.387 0 148.592 0.913446C151.533 2.13137 153.869 4.46746 155.087 7.4078C156 9.61305 156 12.4087 156 18V66C156 71.5913 156 74.3869 155.087 76.5922C153.869 79.5325 151.533 81.8686 148.592 83.0866C146.387 84 143.591 84 138 84H18C12.4087 84 9.61305 84 7.4078 83.0866C4.46746 81.8686 2.13137 79.5325 0.913446 76.5922C0 74.3869 0 71.5913 0 66V18Z" fill="#F2F7FB"/>
</svg>
