<svg width="16" height="20" viewBox="0 0 16 20" fill="none" xmlns="http://www.w3.org/2000/svg">
<path d="M6.79209 19.2002C4.66482 19.2002 2.99338 18.5632 1.7778 17.2893C0.592599 15.985 0 14.1802 0 11.875C0 9.6001 0.486235 7.56785 1.4587 5.77826C2.43117 3.98867 3.76832 2.57823 5.47014 1.54693C7.17197 0.515645 9.10171 0 11.2594 0C12.7181 0 13.8729 0.242658 14.7238 0.727971C15.5747 1.21328 16.0002 1.88059 16.0002 2.72989C16.0002 3.48819 15.6355 4.23132 14.9061 4.95929C14.6326 5.23228 14.268 5.4901 13.8121 5.73276C13.3867 5.94509 13.0524 6.05125 12.8093 6.05125C12.5357 6.05125 12.3078 5.94509 12.1255 5.73276C11.8216 5.39911 11.4265 5.08062 10.9403 4.7773C10.4541 4.47398 9.77028 4.32232 8.88898 4.32232C7.39989 4.32232 6.1843 4.83797 5.24222 5.86926C4.30014 6.87021 3.8291 8.18966 3.8291 9.82759C3.8291 11.3139 4.25456 12.512 5.10547 13.4219C5.95638 14.3319 7.0808 14.7869 8.47872 14.7869C9.20807 14.7869 9.99821 14.6656 10.8491 14.4229C11.7304 14.1499 12.5054 13.7708 13.1739 13.2854C13.5082 12.9821 13.8577 12.8305 14.2224 12.8305C14.8302 12.8305 15.1341 13.2096 15.1341 13.9679C15.1341 14.9689 14.6326 15.9243 13.6298 16.8343C12.87 17.5319 11.852 18.1082 10.5756 18.5632C9.32963 18.9879 8.06846 19.2002 6.79209 19.2002Z" fill="#001815"/>
<path d="M6.82654 18.7431C4.76004 18.7431 3.13637 18.1212 1.95551 16.8776C0.804176 15.6044 0.228509 13.8426 0.228509 11.5923C0.228509 9.37153 0.700851 7.38767 1.64554 5.64068C2.59022 3.8937 3.88916 2.51684 5.54236 1.5101C7.19556 0.503368 9.07017 0 11.1662 0C12.5832 0 13.705 0.23688 14.5316 0.710638C15.3582 1.1844 15.7715 1.83581 15.7715 2.66489C15.7715 3.40514 15.4173 4.13058 14.7088 4.84122C14.4431 5.10771 14.0888 5.35939 13.646 5.59627C13.2327 5.80354 12.908 5.90717 12.6718 5.90717C12.4061 5.90717 12.1847 5.80354 12.0076 5.59627C11.7123 5.27056 11.3286 4.95966 10.8562 4.66356C10.3839 4.36746 9.71964 4.21941 8.86352 4.21941C7.41697 4.21941 6.23611 4.72278 5.32095 5.72951C4.40579 6.70664 3.94821 7.99467 3.94821 9.5936C3.94821 11.0445 4.36151 12.2141 5.18811 13.1024C6.0147 13.9907 7.107 14.4348 8.46498 14.4348C9.1735 14.4348 9.94105 14.3164 10.7677 14.0795C11.6238 13.813 12.3766 13.4429 13.026 12.9691C13.3508 12.673 13.6903 12.525 14.0445 12.525C14.635 12.525 14.9302 12.8951 14.9302 13.6354C14.9302 14.6125 14.4431 15.5452 13.4689 16.4335C12.7308 17.1145 11.7419 17.6771 10.502 18.1212C9.29158 18.5358 8.06644 18.7431 6.82654 18.7431Z" fill="white"/>
</svg>
