<svg width="328" height="48" viewBox="0 0 328 48" fill="none" xmlns="http://www.w3.org/2000/svg">
<g filter="url(#filter0_b_1_3379)">
<circle cx="24" cy="24" r="24" fill="white" fill-opacity="0.2"/>
</g>
<path fill-rule="evenodd" clip-rule="evenodd" d="M24 27V27C22.343 27 21 25.657 21 24V18C21 16.343 22.343 15 24 15V15C25.657 15 27 16.343 27 18V24C27 25.657 25.657 27 24 27Z" stroke="white" stroke-width="1.5" stroke-linecap="round" stroke-linejoin="round"/>
<path d="M30 22V24C30 27.314 27.314 30 24 30V30C20.686 30 18 27.314 18 24V22" stroke="white" stroke-width="1.5" stroke-linecap="round" stroke-linejoin="round"/>
<path d="M24 30V33" stroke="white" stroke-width="1.5" stroke-linecap="round" stroke-linejoin="round"/>
<path d="M19.8199 33H28.1799" stroke="white" stroke-width="1.5" stroke-linecap="round" stroke-linejoin="round"/>
<g filter="url(#filter1_b_1_3379)">
<circle cx="94" cy="24" r="24" fill="white" fill-opacity="0.2"/>
</g>
<path fill-rule="evenodd" clip-rule="evenodd" d="M87.875 20.625H85.5C84.948 20.625 84.5 21.073 84.5 21.625V26.375C84.5 26.927 84.948 27.375 85.5 27.375H87.875L91.854 30.746C92.504 31.297 93.5 30.835 93.5 29.983V18.017C93.5 17.165 92.503 16.703 91.854 17.254L87.875 20.625Z" stroke="white" stroke-width="1.5" stroke-linecap="round" stroke-linejoin="round"/>
<path d="M97.537 27.978C98.699 27.256 99.5 25.754 99.5 24.005C99.5 22.256 98.699 20.753 97.537 20.022" stroke="white" stroke-width="1.5" stroke-linecap="round" stroke-linejoin="round"/>
<path d="M100.505 31.065C102.313 29.51 103.5 26.93 103.5 24.003C103.5 21.072 102.311 18.49 100.5 16.936" stroke="white" stroke-width="1.5" stroke-linecap="round" stroke-linejoin="round"/>
<circle cx="234" cy="24" r="24" fill="#20A090"/>
<path d="M235 29H240C241.657 29 243 27.657 243 26V18C243 16.343 241.657 15 240 15H228C226.343 15 225 16.343 225 18V26C225 27.657 226.343 29 228 29H230V33L235 29" stroke="white" stroke-width="1.5" stroke-linecap="round" stroke-linejoin="round"/>
<g filter="url(#filter2_b_1_3379)">
<circle cx="164" cy="24" r="24" fill="white" fill-opacity="0.2"/>
</g>
<path fill-rule="evenodd" clip-rule="evenodd" d="M165.125 29.75H157.25C156.007 29.75 155 28.743 155 27.5V20.5C155 19.257 156.007 18.25 157.25 18.25H165.125C166.368 18.25 167.375 19.257 167.375 20.5V27.5C167.375 28.743 166.368 29.75 165.125 29.75Z" stroke="white" stroke-width="1.5" stroke-linecap="round" stroke-linejoin="round"/>
<path d="M167.375 25.097L171.17 28.151C171.906 28.744 173 28.22 173 27.275V20.725C173 19.78 171.906 19.256 171.17 19.849L167.375 22.903" stroke="white" stroke-width="1.5" stroke-linecap="round" stroke-linejoin="round"/>
<circle cx="304" cy="24" r="24" fill="#EA3736"/>
<path d="M309 19.0001L299 29M309 28.9999L299 19" stroke="white" stroke-width="1.5" stroke-linecap="round" stroke-linejoin="round"/>
<defs>
<filter id="filter0_b_1_3379" x="-30" y="-30" width="108" height="108" filterUnits="userSpaceOnUse" color-interpolation-filters="sRGB">
<feFlood flood-opacity="0" result="BackgroundImageFix"/>
<feGaussianBlur in="BackgroundImageFix" stdDeviation="15"/>
<feComposite in2="SourceAlpha" operator="in" result="effect1_backgroundBlur_1_3379"/>
<feBlend mode="normal" in="SourceGraphic" in2="effect1_backgroundBlur_1_3379" result="shape"/>
</filter>
<filter id="filter1_b_1_3379" x="40" y="-30" width="108" height="108" filterUnits="userSpaceOnUse" color-interpolation-filters="sRGB">
<feFlood flood-opacity="0" result="BackgroundImageFix"/>
<feGaussianBlur in="BackgroundImageFix" stdDeviation="15"/>
<feComposite in2="SourceAlpha" operator="in" result="effect1_backgroundBlur_1_3379"/>
<feBlend mode="normal" in="SourceGraphic" in2="effect1_backgroundBlur_1_3379" result="shape"/>
</filter>
<filter id="filter2_b_1_3379" x="110" y="-30" width="108" height="108" filterUnits="userSpaceOnUse" color-interpolation-filters="sRGB">
<feFlood flood-opacity="0" result="BackgroundImageFix"/>
<feGaussianBlur in="BackgroundImageFix" stdDeviation="15"/>
<feComposite in2="SourceAlpha" operator="in" result="effect1_backgroundBlur_1_3379"/>
<feBlend mode="normal" in="SourceGraphic" in2="effect1_backgroundBlur_1_3379" result="shape"/>
</filter>
</defs>
</svg>
