<svg width="60" height="71" viewBox="0 0 60 71" fill="none" xmlns="http://www.w3.org/2000/svg">
<path d="M25.1163 71C17.2499 71 11.0692 68.6445 6.57407 63.9336C2.19136 59.1106 0 52.4368 0 43.9123C0 35.5 1.79804 27.985 5.39411 21.3673C8.99019 14.7496 13.9348 9.53396 20.2279 5.72037C26.5211 1.90679 33.657 0 41.6358 0C47.0299 0 51.3003 0.897318 54.4468 2.69195C57.5934 4.48658 59.1667 6.95419 59.1667 10.0948C59.1667 12.8989 57.8181 15.6469 55.1211 18.3389C54.1097 19.3483 52.7612 20.3017 51.0755 21.199C49.5022 21.9842 48.2661 22.3768 47.3671 22.3768C46.3557 22.3768 45.5128 21.9842 44.8386 21.199C43.7148 19.9652 42.2539 18.7875 40.4558 17.6659C38.6578 16.5442 36.1293 15.9834 32.8704 15.9834C27.3639 15.9834 22.8688 17.8902 19.3851 21.7038C15.9014 25.4052 14.1595 30.2844 14.1595 36.3412C14.1595 41.8373 15.7328 46.2678 18.8794 49.6327C22.026 52.9976 26.1839 54.6801 31.3533 54.6801C34.0503 54.6801 36.9721 54.2314 40.1187 53.3341C43.3777 52.3246 46.2433 50.9226 48.7156 49.128C49.9517 48.0063 51.2441 47.4455 52.5926 47.4455C54.8401 47.4455 55.9639 48.8476 55.9639 51.6517C55.9639 55.3531 54.1097 58.8862 50.4012 62.2512C47.5918 64.831 43.8272 66.9621 39.1073 68.6445C34.4998 70.2148 29.8362 71 25.1163 71Z" fill="#001815"/>
</svg>
